<?xml version="1.0" encoding="UTF-8" standalone="no"?>
<!DOCTYPE svg PUBLIC "-//W3C//DTD SVG 1.1//EN"
 "http://www.w3.org/Graphics/SVG/1.1/DTD/svg11.dtd">
<!-- Generated by graphviz version 14.1.3 (20260303.0454)
 -->
<!-- Title: model Pages: 1 -->
<svg width="134pt" height="659pt"
 viewBox="0.00 0.00 134.00 659.00" xmlns="http://www.w3.org/2000/svg" xmlns:xlink="http://www.w3.org/1999/xlink">
<g id="graph0" class="graph" transform="scale(1 1) rotate(0) translate(4 654.5)">
<title>model</title>
<polygon fill="white" stroke="none" points="-4,4 -4,-654.5 130,-654.5 130,4 -4,4"/>
<!-- 0 -->
<g id="node1" class="node">
<title>0</title>
<polygon fill="lightyellow" stroke="none" points="109.75,-650.5 16.25,-650.5 16.25,-618 109.75,-618 109.75,-650.5"/>
<polygon fill="none" stroke="black" points="16.25,-618 16.25,-650.5 77.25,-650.5 77.25,-618 16.25,-618"/>
<text xml:space="preserve" text-anchor="start" x="21.25" y="-637.25" font-family="Linux libertine" font-size="10.00">input&#45;tensor</text>
<text xml:space="preserve" text-anchor="start" x="30.62" y="-626" font-family="Linux libertine" font-size="10.00">depth:0</text>
<polygon fill="none" stroke="black" points="77.25,-618 77.25,-650.5 109.75,-650.5 109.75,-618 77.25,-618"/>
<text xml:space="preserve" text-anchor="start" x="82.25" y="-631.62" font-family="Linux libertine" font-size="10.00">(1, 4)</text>
</g>
<!-- 1 -->
<g id="node2" class="node">
<title>1</title>
<polygon fill="#c1ffc1" stroke="none" points="123.38,-582 2.62,-582 2.62,-539.5 123.38,-539.5 123.38,-582"/>
<polygon fill="none" stroke="black" points="2.62,-539.5 2.62,-582 44.88,-582 44.88,-539.5 2.62,-539.5"/>
<text xml:space="preserve" text-anchor="start" x="10.62" y="-563.75" font-family="Linux libertine" font-size="10.00">Linear</text>
<text xml:space="preserve" text-anchor="start" x="7.62" y="-552.5" font-family="Linux libertine" font-size="10.00">depth:1</text>
<polygon fill="none" stroke="black" points="44.88,-560.75 44.88,-582 87.88,-582 87.88,-560.75 44.88,-560.75"/>
<text xml:space="preserve" text-anchor="start" x="54.38" y="-568.75" font-family="Linux libertine" font-size="10.00">input:</text>
<polygon fill="none" stroke="black" points="87.88,-560.75 87.88,-582 123.38,-582 123.38,-560.75 87.88,-560.75"/>
<text xml:space="preserve" text-anchor="start" x="92.88" y="-568.75" font-family="Linux libertine" font-size="10.00">(1, 4) </text>
<polygon fill="none" stroke="black" points="44.88,-539.5 44.88,-560.75 87.88,-560.75 87.88,-539.5 44.88,-539.5"/>
<text xml:space="preserve" text-anchor="start" x="49.88" y="-547.5" font-family="Linux libertine" font-size="10.00">output: </text>
<polygon fill="none" stroke="black" points="87.88,-539.5 87.88,-560.75 123.38,-560.75 123.38,-539.5 87.88,-539.5"/>
<text xml:space="preserve" text-anchor="start" x="92.88" y="-547.5" font-family="Linux libertine" font-size="10.00">(1, 8) </text>
</g>
<!-- 0&#45;&gt;1 -->
<g id="edge1" class="edge">
<title>0&#45;&gt;1</title>
<path fill="none" stroke="black" d="M63,-618.09C63,-610.82 63,-601.82 63,-593.17"/>
<polygon fill="black" stroke="black" points="66.5,-593.29 63,-583.29 59.5,-593.29 66.5,-593.29"/>
</g>
<!-- 2 -->
<g id="node3" class="node">
<title>2</title>
<polygon fill="#c1ffc1" stroke="none" points="123.38,-503.5 2.62,-503.5 2.62,-461 123.38,-461 123.38,-503.5"/>
<polygon fill="none" stroke="black" points="2.62,-461 2.62,-503.5 44.88,-503.5 44.88,-461 2.62,-461"/>
<text xml:space="preserve" text-anchor="start" x="11" y="-485.25" font-family="Linux libertine" font-size="10.00">ReLU</text>
<text xml:space="preserve" text-anchor="start" x="7.62" y="-474" font-family="Linux libertine" font-size="10.00">depth:1</text>
<polygon fill="none" stroke="black" points="44.88,-482.25 44.88,-503.5 87.88,-503.5 87.88,-482.25 44.88,-482.25"/>
<text xml:space="preserve" text-anchor="start" x="54.38" y="-490.25" font-family="Linux libertine" font-size="10.00">input:</text>
<polygon fill="none" stroke="black" points="87.88,-482.25 87.88,-503.5 123.38,-503.5 123.38,-482.25 87.88,-482.25"/>
<text xml:space="preserve" text-anchor="start" x="92.88" y="-490.25" font-family="Linux libertine" font-size="10.00">(1, 8) </text>
<polygon fill="none" stroke="black" points="44.88,-461 44.88,-482.25 87.88,-482.25 87.88,-461 44.88,-461"/>
<text xml:space="preserve" text-anchor="start" x="49.88" y="-469" font-family="Linux libertine" font-size="10.00">output: </text>
<polygon fill="none" stroke="black" points="87.88,-461 87.88,-482.25 123.38,-482.25 123.38,-461 87.88,-461"/>
<text xml:space="preserve" text-anchor="start" x="92.88" y="-469" font-family="Linux libertine" font-size="10.00">(1, 8) </text>
</g>
<!-- 1&#45;&gt;2 -->
<g id="edge2" class="edge">
<title>1&#45;&gt;2</title>
<path fill="none" stroke="black" d="M63,-539.65C63,-532.07 63,-523.25 63,-514.86"/>
<polygon fill="black" stroke="black" points="66.5,-514.99 63,-504.99 59.5,-514.99 66.5,-514.99"/>
</g>
<!-- 3 -->
<g id="node4" class="node">
<title>3</title>
<polygon fill="#c1ffc1" stroke="none" points="126,-425 0,-425 0,-382.5 126,-382.5 126,-425"/>
<polygon fill="none" stroke="black" points="0,-382.5 0,-425 42.25,-425 42.25,-382.5 0,-382.5"/>
<text xml:space="preserve" text-anchor="start" x="8" y="-406.75" font-family="Linux libertine" font-size="10.00">Linear</text>
<text xml:space="preserve" text-anchor="start" x="5" y="-395.5" font-family="Linux libertine" font-size="10.00">depth:1</text>
<polygon fill="none" stroke="black" points="42.25,-403.75 42.25,-425 85.25,-425 85.25,-403.75 42.25,-403.75"/>
<text xml:space="preserve" text-anchor="start" x="51.75" y="-411.75" font-family="Linux libertine" font-size="10.00">input:</text>
<polygon fill="none" stroke="black" points="85.25,-403.75 85.25,-425 126,-425 126,-403.75 85.25,-403.75"/>
<text xml:space="preserve" text-anchor="start" x="92.88" y="-411.75" font-family="Linux libertine" font-size="10.00">(1, 8) </text>
<polygon fill="none" stroke="black" points="42.25,-382.5 42.25,-403.75 85.25,-403.75 85.25,-382.5 42.25,-382.5"/>
<text xml:space="preserve" text-anchor="start" x="47.25" y="-390.5" font-family="Linux libertine" font-size="10.00">output: </text>
<polygon fill="none" stroke="black" points="85.25,-382.5 85.25,-403.75 126,-403.75 126,-382.5 85.25,-382.5"/>
<text xml:space="preserve" text-anchor="start" x="90.25" y="-390.5" font-family="Linux libertine" font-size="10.00">(1, 12) </text>
</g>
<!-- 2&#45;&gt;3 -->
<g id="edge3" class="edge">
<title>2&#45;&gt;3</title>
<path fill="none" stroke="black" d="M63,-461.15C63,-453.57 63,-444.75 63,-436.36"/>
<polygon fill="black" stroke="black" points="66.5,-436.49 63,-426.49 59.5,-436.49 66.5,-436.49"/>
</g>
<!-- 4 -->
<g id="node5" class="node">
<title>4</title>
<polygon fill="#c1ffc1" stroke="none" points="126,-346.5 0,-346.5 0,-304 126,-304 126,-346.5"/>
<polygon fill="none" stroke="black" points="0,-304 0,-346.5 42.25,-346.5 42.25,-304 0,-304"/>
<text xml:space="preserve" text-anchor="start" x="8.38" y="-328.25" font-family="Linux libertine" font-size="10.00">ReLU</text>
<text xml:space="preserve" text-anchor="start" x="5" y="-317" font-family="Linux libertine" font-size="10.00">depth:1</text>
<polygon fill="none" stroke="black" points="42.25,-325.25 42.25,-346.5 85.25,-346.5 85.25,-325.25 42.25,-325.25"/>
<text xml:space="preserve" text-anchor="start" x="51.75" y="-333.25" font-family="Linux libertine" font-size="10.00">input:</text>
<polygon fill="none" stroke="black" points="85.25,-325.25 85.25,-346.5 126,-346.5 126,-325.25 85.25,-325.25"/>
<text xml:space="preserve" text-anchor="start" x="90.25" y="-333.25" font-family="Linux libertine" font-size="10.00">(1, 12) </text>
<polygon fill="none" stroke="black" points="42.25,-304 42.25,-325.25 85.25,-325.25 85.25,-304 42.25,-304"/>
<text xml:space="preserve" text-anchor="start" x="47.25" y="-312" font-family="Linux libertine" font-size="10.00">output: </text>
<polygon fill="none" stroke="black" points="85.25,-304 85.25,-325.25 126,-325.25 126,-304 85.25,-304"/>
<text xml:space="preserve" text-anchor="start" x="90.25" y="-312" font-family="Linux libertine" font-size="10.00">(1, 12) </text>
</g>
<!-- 3&#45;&gt;4 -->
<g id="edge4" class="edge">
<title>3&#45;&gt;4</title>
<path fill="none" stroke="black" d="M63,-382.65C63,-375.07 63,-366.25 63,-357.86"/>
<polygon fill="black" stroke="black" points="66.5,-357.99 63,-347.99 59.5,-357.99 66.5,-357.99"/>
</g>
<!-- 5 -->
<g id="node6" class="node">
<title>5</title>
<polygon fill="#c1ffc1" stroke="none" points="126,-268 0,-268 0,-225.5 126,-225.5 126,-268"/>
<polygon fill="none" stroke="black" points="0,-225.5 0,-268 42.25,-268 42.25,-225.5 0,-225.5"/>
<text xml:space="preserve" text-anchor="start" x="8" y="-249.75" font-family="Linux libertine" font-size="10.00">Linear</text>
<text xml:space="preserve" text-anchor="start" x="5" y="-238.5" font-family="Linux libertine" font-size="10.00">depth:1</text>
<polygon fill="none" stroke="black" points="42.25,-246.75 42.25,-268 85.25,-268 85.25,-246.75 42.25,-246.75"/>
<text xml:space="preserve" text-anchor="start" x="51.75" y="-254.75" font-family="Linux libertine" font-size="10.00">input:</text>
<polygon fill="none" stroke="black" points="85.25,-246.75 85.25,-268 126,-268 126,-246.75 85.25,-246.75"/>
<text xml:space="preserve" text-anchor="start" x="90.25" y="-254.75" font-family="Linux libertine" font-size="10.00">(1, 12) </text>
<polygon fill="none" stroke="black" points="42.25,-225.5 42.25,-246.75 85.25,-246.75 85.25,-225.5 42.25,-225.5"/>
<text xml:space="preserve" text-anchor="start" x="47.25" y="-233.5" font-family="Linux libertine" font-size="10.00">output: </text>
<polygon fill="none" stroke="black" points="85.25,-225.5 85.25,-246.75 126,-246.75 126,-225.5 85.25,-225.5"/>
<text xml:space="preserve" text-anchor="start" x="92.88" y="-233.5" font-family="Linux libertine" font-size="10.00">(1, 8) </text>
</g>
<!-- 4&#45;&gt;5 -->
<g id="edge5" class="edge">
<title>4&#45;&gt;5</title>
<path fill="none" stroke="black" d="M63,-304.15C63,-296.57 63,-287.75 63,-279.36"/>
<polygon fill="black" stroke="black" points="66.5,-279.49 63,-269.49 59.5,-279.49 66.5,-279.49"/>
</g>
<!-- 6 -->
<g id="node7" class="node">
<title>6</title>
<polygon fill="#c1ffc1" stroke="none" points="123.38,-189.5 2.62,-189.5 2.62,-147 123.38,-147 123.38,-189.5"/>
<polygon fill="none" stroke="black" points="2.62,-147 2.62,-189.5 44.88,-189.5 44.88,-147 2.62,-147"/>
<text xml:space="preserve" text-anchor="start" x="11" y="-171.25" font-family="Linux libertine" font-size="10.00">ReLU</text>
<text xml:space="preserve" text-anchor="start" x="7.62" y="-160" font-family="Linux libertine" font-size="10.00">depth:1</text>
<polygon fill="none" stroke="black" points="44.88,-168.25 44.88,-189.5 87.88,-189.5 87.88,-168.25 44.88,-168.25"/>
<text xml:space="preserve" text-anchor="start" x="54.38" y="-176.25" font-family="Linux libertine" font-size="10.00">input:</text>
<polygon fill="none" stroke="black" points="87.88,-168.25 87.88,-189.5 123.38,-189.5 123.38,-168.25 87.88,-168.25"/>
<text xml:space="preserve" text-anchor="start" x="92.88" y="-176.25" font-family="Linux libertine" font-size="10.00">(1, 8) </text>
<polygon fill="none" stroke="black" points="44.88,-147 44.88,-168.25 87.88,-168.25 87.88,-147 44.88,-147"/>
<text xml:space="preserve" text-anchor="start" x="49.88" y="-155" font-family="Linux libertine" font-size="10.00">output: </text>
<polygon fill="none" stroke="black" points="87.88,-147 87.88,-168.25 123.38,-168.25 123.38,-147 87.88,-147"/>
<text xml:space="preserve" text-anchor="start" x="92.88" y="-155" font-family="Linux libertine" font-size="10.00">(1, 8) </text>
</g>
<!-- 5&#45;&gt;6 -->
<g id="edge6" class="edge">
<title>5&#45;&gt;6</title>
<path fill="none" stroke="black" d="M63,-225.65C63,-218.07 63,-209.25 63,-200.86"/>
<polygon fill="black" stroke="black" points="66.5,-200.99 63,-190.99 59.5,-200.99 66.5,-200.99"/>
</g>
<!-- 7 -->
<g id="node8" class="node">
<title>7</title>
<polygon fill="#c1ffc1" stroke="none" points="123.38,-111 2.62,-111 2.62,-68.5 123.38,-68.5 123.38,-111"/>
<polygon fill="none" stroke="black" points="2.62,-68.5 2.62,-111 44.88,-111 44.88,-68.5 2.62,-68.5"/>
<text xml:space="preserve" text-anchor="start" x="10.62" y="-92.75" font-family="Linux libertine" font-size="10.00">Linear</text>
<text xml:space="preserve" text-anchor="start" x="7.62" y="-81.5" font-family="Linux libertine" font-size="10.00">depth:1</text>
<polygon fill="none" stroke="black" points="44.88,-89.75 44.88,-111 87.88,-111 87.88,-89.75 44.88,-89.75"/>
<text xml:space="preserve" text-anchor="start" x="54.38" y="-97.75" font-family="Linux libertine" font-size="10.00">input:</text>
<polygon fill="none" stroke="black" points="87.88,-89.75 87.88,-111 123.38,-111 123.38,-89.75 87.88,-89.75"/>
<text xml:space="preserve" text-anchor="start" x="92.88" y="-97.75" font-family="Linux libertine" font-size="10.00">(1, 8) </text>
<polygon fill="none" stroke="black" points="44.88,-68.5 44.88,-89.75 87.88,-89.75 87.88,-68.5 44.88,-68.5"/>
<text xml:space="preserve" text-anchor="start" x="49.88" y="-76.5" font-family="Linux libertine" font-size="10.00">output: </text>
<polygon fill="none" stroke="black" points="87.88,-68.5 87.88,-89.75 123.38,-89.75 123.38,-68.5 87.88,-68.5"/>
<text xml:space="preserve" text-anchor="start" x="92.88" y="-76.5" font-family="Linux libertine" font-size="10.00">(1, 3) </text>
</g>
<!-- 6&#45;&gt;7 -->
<g id="edge7" class="edge">
<title>6&#45;&gt;7</title>
<path fill="none" stroke="black" d="M63,-147.15C63,-139.57 63,-130.75 63,-122.36"/>
<polygon fill="black" stroke="black" points="66.5,-122.49 63,-112.49 59.5,-122.49 66.5,-122.49"/>
</g>
<!-- 8 -->
<g id="node9" class="node">
<title>8</title>
<polygon fill="lightyellow" stroke="none" points="112.75,-32.5 13.25,-32.5 13.25,0 112.75,0 112.75,-32.5"/>
<polygon fill="none" stroke="black" points="13.25,0 13.25,-32.5 80.25,-32.5 80.25,0 13.25,0"/>
<text xml:space="preserve" text-anchor="start" x="18.25" y="-19.25" font-family="Linux libertine" font-size="10.00">output&#45;tensor</text>
<text xml:space="preserve" text-anchor="start" x="30.62" y="-8" font-family="Linux libertine" font-size="10.00">depth:0</text>
<polygon fill="none" stroke="black" points="80.25,0 80.25,-32.5 112.75,-32.5 112.75,0 80.25,0"/>
<text xml:space="preserve" text-anchor="start" x="85.25" y="-13.62" font-family="Linux libertine" font-size="10.00">(1, 3)</text>
</g>
<!-- 7&#45;&gt;8 -->
<g id="edge8" class="edge">
<title>7&#45;&gt;8</title>
<path fill="none" stroke="black" d="M63,-68.83C63,-61.06 63,-52.03 63,-43.73"/>
<polygon fill="black" stroke="black" points="66.5,-43.81 63,-33.81 59.5,-43.81 66.5,-43.81"/>
</g>
</g>
</svg>
